<?xml version="1.0" encoding="UTF-8"?>
<!-- Generator: Adobe Illustrator 24.2.1, SVG Export Plug-In . SVG Version: 6.00 Build 0)  -->
<svg xmlns="http://www.w3.org/2000/svg" xmlns:xlink="http://www.w3.org/1999/xlink" version="1.1" id="Calque_1" x="0px" y="0px" viewBox="0 0 841.89 595.28" style="enable-background:new 0 0 841.89 595.28;" xml:space="preserve">
<style type="text/css">
	.st0{fill:#58A894;stroke:#58A894;stroke-width:2;stroke-miterlimit:10;}
	.st1{fill:#083C30;}
	.st2{fill:#58A894;}
	.st3{fill:#FFFFFF;}
</style>
<g>
	<path class="st3" d="M264.68,164.19c0.26,0.12,0.54,0.18,0.83,0.18c0.58,0,1.13-0.25,1.51-0.69c12.9-14.78,23.1-29.3,31.2-44.39   c0.32-0.6,0.32-1.31-0.01-1.91c-6.42-11.74-11.81-21.12-16.96-29.51c-2.69-4.39-4.66-7.73-6.39-10.84   c-0.43-0.78-1.34-1.18-2.21-0.98c-0.87,0.21-1.5,0.97-1.54,1.86c-1.2,27.97-3.75,56.29-7.59,84.18   C263.41,162.96,263.88,163.82,264.68,164.19z M277.85,89.97c4.97,8.11,10.17,17.14,16.33,28.38   c-6.94,12.75-15.39,25.07-25.79,37.55c3.06-23.54,5.22-47.38,6.41-70.98C275.71,86.46,276.71,88.11,277.85,89.97z M265.51,163.37   L265.51,163.37L265.51,163.37L265.51,163.37z"></path>
	<path class="st3" d="M179.86,448.88c-0.07-0.03-0.15-0.06-0.22-0.08c-26.71-12.35-49.48-37.25-69.61-76.13   c-14.77-28.52-25.71-59.01-32.53-90.62c-0.18-0.86-0.93-1.51-1.82-1.58c-0.88-0.06-1.7,0.47-2.01,1.29   c-17.84,47.58-18.19,91.49-1.06,130.5c16.33,37.18,52.44,82.62,100.42,88.32c0.08,0.01,0.16,0.01,0.24,0.01   c0.46,0,0.91-0.16,1.26-0.45c0.42-0.34,0.68-0.85,0.73-1.39c0.54-6.62,1.1-12.66,1.69-18.45c0.97-9.45,2.31-19.02,4.08-29.24   C181.2,450.14,180.72,449.25,179.86,448.88z M76.28,410.65C60.35,374.4,59.96,333.69,75.1,289.6c6.95,29.57,17.5,58.11,31.37,84.9   c20.28,39.16,43.31,64.49,70.36,77.4c-1.6,9.39-2.83,18.24-3.75,27l0,0l-0.1,1c0,0.03-0.01,0.07-0.01,0.1l-0.09,0.9   c-0.5,4.88-0.96,9.96-1.42,15.45C126.14,489.79,91.9,446.21,76.28,410.65z"></path>
	<path class="st3" d="M365.77,303.5l-0.15-1.06c-6.51-46.96-24.92-104.42-46.89-146.4c-4.4-8.42-9.14-17.46-13.93-26.48   c-0.34-0.63-0.99-1.04-1.66-1.06c-0.71-0.05-1.43,0.32-1.82,0.96c-10.21,16.92-23.34,33.55-40.12,50.81   c-0.3,0.3-0.49,0.68-0.55,1.09c-4.74,29.62-11.14,59.7-19.02,89.41c-1.14-0.69-2.31-1.36-3.55-1.98c-1.39-0.69-2.86-1.31-4.36-1.88   l0.03-0.1c7.01-25.73,12.25-49.19,16.02-71.72c0.22-1.35,0.39-2.52,0.61-4.03c0.35-2.39,0.83-5.67,1.87-11.84   c5-34.18,8.05-70.79,9.05-108.82c0.02-0.93-0.61-1.76-1.5-1.98c-0.89-0.24-1.85,0.19-2.26,0.99c-6.71,12.53-15.71,24.8-27.52,37.53   c-10.98,11.86-22.37,21.87-31.06,29.27c-7.99,6.79-16.36,13.54-23.76,19.51c-0.57,0.47-0.84,1.21-0.7,1.88   c0.03,0.22,0.1,0.43,0.21,0.62c0.13,0.58,0.41,2.22,0.7,3.95l0.12,0.7c6.96,42.53,18.22,76.22,33.48,100.16h-13.34l-0.29-0.5   c-14.54-25.22-24.24-57.46-28.81-95.82c-0.08-0.72-0.55-1.34-1.23-1.62c-0.67-0.28-1.44-0.16-2.02,0.3   c-26.62,21.74-54.15,45.79-72.6,79.51c-3.05,5.56-5.97,11.32-8.68,17.11c-0.19,0.41-0.24,0.86-0.14,1.32   c0.67,2.81,21.5,71.06,37.45,101.85c18.45,35.63,38.05,58.49,61.66,71.94c0.3,0.18,0.64,0.27,1.01,0.27c0.29,0,0.56-0.06,0.81-0.17   c0.6-0.26,1.04-0.8,1.15-1.42c4.33-20.89,10.41-43.53,18.57-69.18l12.79,22.32c-2.96,0.45-6.04,0.82-9.14,1.1   c-0.83,0.06-1.53,0.62-1.77,1.45c-9.18,32.61-14.73,60.52-17.44,87.85c-1.2,12.08-1.85,20.52-1.92,25.07   c-0.02,1.01,0.73,1.88,1.76,2.02c2.73,0.34,5.66,0.51,8.69,0.51c7.08,0,14.65-0.89,21.88-2.59c14.61-3.4,32.64-10.75,44.87-18.28   c21.37-13.17,33.55-21.69,52.83-42.88c11.54-12.68,21.25-25.75,28.86-38.85l0.49-0.85c3.32-0.84,6.51-1.96,9.55-3.37   c7.58-3.52,13.82-8.37,18.74-14.55c4.92-6.18,8.11-13.19,9.57-21.04h-21.29c0.9-3.19,1.72-6.46,2.43-9.76l0.05-0.21h19.62   c0.66-3.32,1-6.38,1-9.17c0-10.63-2.3-20.04-6.88-28.21C374.17,311.83,370.37,307.28,365.77,303.5z M252.74,333.8   c5.65-7.17,8.47-15.88,8.47-26.12c0-8.64-1.92-16.31-5.78-23.03c-2.58-4.47-6.02-8.31-10.3-11.51l0.1-0.39   c7.96-29.86,14.43-60.18,19.25-90.13c15.83-16.33,28.42-32.09,38.42-48.09c4.41,8.32,8.66,16.44,12.28,23.36   c21.28,40.67,39.32,96.43,46.07,142.33c-1.14-0.74-2.31-1.45-3.54-2.11c-8.38-4.51-18.08-6.78-29.11-6.78   c-10.91,0-20.61,2.3-29.12,6.88c-8.5,4.59-15.12,11.17-19.84,19.74c-4.71,8.58-7.07,18.71-7.07,30.41c0,3.28,0.2,6.43,0.58,9.46   l-0.28,0.12c-10.5,4.62-21.31,8.32-32.12,10.98l-0.3,0.07l-12.36-20.44C238.88,345.9,247.09,340.98,252.74,333.8z M349.54,340.18   h-43.47c0.53-7.17,2.86-12.62,6.98-16.35c4.12-3.72,9.31-5.58,15.56-5.58c5.98,0,10.99,1.83,15.05,5.48   C347.71,327.39,349.67,332.88,349.54,340.18z M312.07,440.49c-18.95,20.82-30.93,29.2-51.97,42.15   c-11.89,7.32-29.44,14.48-43.68,17.81c-9.15,2.13-19.29,2.93-27.36,2.19c0.19-4.7,0.81-12.4,1.85-22.92   c2.66-26.77,8.05-54.06,16.94-85.84c3.15-0.3,6.24-0.7,9.2-1.17l0.37-0.06l6.5,11.34h37.68l-11.87-19.65   c8.71-3.03,17.9-6.86,27.31-11.4c0.8,1.97,1.69,3.89,2.71,5.73c4.78,8.64,11.39,15.25,19.83,19.84c8.44,4.58,18.11,6.88,29.02,6.88   c3.62,0,7.11-0.28,10.47-0.82C331.82,416.67,322.75,428.75,312.07,440.49z M275.54,369.23c-9.5,4.6-18.82,8.48-27.71,11.54   l-0.2,0.07l-4.99-8.25c10.54-2.66,21.02-6.25,31.18-10.69c0.47,2.51,1.09,4.93,1.85,7.26L275.54,369.23z M213.81,263.12l-0.4-0.6   c-15.5-23.55-26.92-57.29-33.96-100.3c-0.34-2.09-0.55-3.36-0.72-4.22c7.39-5.95,15.21-12.29,22.81-18.75   c17.94-15.25,40.21-35.8,55.51-60.95c-1.19,34.99-4.13,68.72-8.75,100.3c-0.97,5.74-1.46,8.99-1.81,11.37l-0.08,0.57   c-0.2,1.42-0.37,2.58-0.59,3.89c-3.75,22.36-8.95,45.66-15.91,71.21C225.07,264.22,219.7,263.38,213.81,263.12z M185.64,403.99   v-53.24h7.78l6.38,11.12l-0.28,0.87c-8.27,25.82-14.47,48.57-18.93,69.5c-21.89-13.24-40.26-35.19-57.72-68.92   c-15.04-29.03-34.61-92.16-36.93-100.29c2.57-5.46,5.35-10.92,8.25-16.23c17.69-32.32,43.61-55.33,68.83-76.04   c4.71,36.55,14.13,67.58,28.02,92.25h-39.48v140.97H185.64z M185.64,327.42v-35.69h21.14c6.64,0,11.6,1.6,14.85,4.79   c3.26,3.19,4.89,7.57,4.89,13.16c0,5.85-1.6,10.27-4.79,13.26s-8.17,4.48-14.95,4.48H185.64z M346.15,364.51   c-1.06,3.99-3.26,7.25-6.58,9.77c-3.32,2.53-7.51,3.79-12.56,3.79c-5.98,0-10.9-1.83-14.75-5.48c-3.62-3.43-5.72-8.93-6.29-16.5   c-0.04-0.5-0.07-1.02-0.09-1.55h53.44c-0.73,3.31-1.55,6.57-2.46,9.69l-0.08,0.28H346.15z"></path>
	<rect x="401.78" y="256.44" class="st3" width="34.1" height="147.55"></rect>
	<path class="st3" d="M527.2,364.51c-1.07,3.99-3.26,7.25-6.58,9.77c-3.32,2.53-7.51,3.79-12.56,3.79c-5.98,0-10.9-1.83-14.75-5.48   c-3.86-3.65-5.98-9.67-6.38-18.04h77.17c0.66-3.32,1-6.38,1-9.17c0-10.63-2.29-20.04-6.88-28.21   c-4.59-8.18-11.07-14.52-19.44-19.04c-8.37-4.52-18.08-6.78-29.11-6.78c-10.9,0-20.61,2.29-29.11,6.88   c-8.51,4.59-15.12,11.17-19.84,19.74c-4.72,8.57-7.08,18.71-7.08,30.41c0,11.57,2.39,21.67,7.18,30.31   c4.79,8.64,11.4,15.25,19.84,19.84c8.44,4.59,18.11,6.88,29.01,6.88c9.3,0,17.75-1.76,25.32-5.28c7.58-3.52,13.82-8.38,18.74-14.56   c4.92-6.18,8.11-13.19,9.57-21.04H527.2z M494.1,323.83c4.12-3.72,9.3-5.58,15.55-5.58c5.98,0,11,1.83,15.05,5.48   c4.05,3.66,6.01,9.14,5.88,16.45h-43.47C487.65,333.01,489.98,327.56,494.1,323.83z"></path>
	<path class="st3" d="M600.47,398.51c7.24,4.59,15.45,6.88,24.62,6.88c8.51,0,15.82-1.92,21.93-5.78   c6.11-3.85,10.63-9.1,13.56-15.75v20.14h33.9V292.73h-33.9v20.14c-2.93-6.65-7.45-11.9-13.56-15.75   c-6.12-3.85-13.43-5.78-21.93-5.78c-9.17,0-17.38,2.29-24.62,6.88c-7.25,4.59-12.96,11.17-17.15,19.74   c-4.19,8.57-6.28,18.71-6.28,30.41c0,11.57,2.09,21.67,6.28,30.31C587.51,387.31,593.23,393.92,600.47,398.51z M618.42,328.42   c4.45-4.79,10.33-7.18,17.65-7.18c7.18,0,13.06,2.43,17.65,7.28c4.59,4.85,6.88,11.46,6.88,19.84c0,8.24-2.29,14.82-6.88,19.74   c-4.59,4.92-10.47,7.38-17.65,7.38c-7.31,0-13.19-2.39-17.65-7.18c-4.46-4.79-6.68-11.43-6.68-19.94   C611.74,339.85,613.96,333.21,618.42,328.42z"></path>
	<path class="st3" d="M722.2,403.99h34.1v-82.55h20.14v-28.71H756.3c0.26-5.31,1.66-9.17,4.19-11.56c2.52-2.39,6.58-3.59,12.16-3.59   l3.79,0.2v-29.31c-1.6-0.13-3.99-0.2-7.18-0.2c-15.29,0-26.95,3.76-34.99,11.27c-8.04,7.51-12.06,18.18-12.06,32v1.2h-13.36v28.71   h13.36V403.99z"></path>
	<path class="st3" d="M569.08,442.68c2.04-1.26,4.36-1.89,6.95-1.89c3.26,0,6.02,0.78,8.27,2.34c2.25,1.56,3.88,3.65,4.9,6.27h5.4   c-1.2-4.13-3.38-7.38-6.53-9.76c-3.15-2.38-7.15-3.57-11.99-3.57c-3.71,0-7,0.85-9.85,2.56c-2.85,1.71-5.07,4.1-6.67,7.17   c-1.6,3.08-2.39,6.58-2.39,10.52c0,3.9,0.8,7.38,2.39,10.44c1.59,3.06,3.82,5.44,6.67,7.15c2.85,1.71,6.13,2.56,9.85,2.56   c4.84,0,8.83-1.19,11.99-3.57s5.33-5.64,6.53-9.76h-5.4c-1.01,2.63-2.64,4.72-4.9,6.27s-5.01,2.33-8.27,2.33   c-2.59,0-4.91-0.63-6.95-1.88s-3.66-3.05-4.84-5.37c-1.18-2.33-1.77-5.05-1.77-8.16c0-3.15,0.59-5.9,1.77-8.24   C565.42,445.74,567.04,443.94,569.08,442.68z"></path>
	<path class="st3" d="M613.12,437.2l-14.69,38.94h5.51l3.32-9.17h17.45l3.32,9.17h5.51l-14.63-38.94H613.12z M608.73,462.97   l7.26-20.03l7.26,20.03H608.73z"></path>
	<path class="st3" d="M662.58,456.08c1.8-1.97,2.7-4.57,2.7-7.79c0-3.56-1.13-6.42-3.38-8.58s-5.63-3.24-10.13-3.24h-13.06v39.67   h5.12v-16.21h5.57l10.35,16.21h5.8l-10.8-16.38C658.17,459.28,660.78,458.05,662.58,456.08z M643.84,456.22v-15.31h7.48   c5.81,0,8.72,2.55,8.72,7.65c0,5.1-2.91,7.65-8.72,7.65H643.84z"></path>
	<path class="st3" d="M690.89,455.6c2.14-0.45,3.89-1.46,5.26-3.04c1.37-1.58,2.05-3.64,2.05-6.19c0-3.08-1.03-5.5-3.09-7.26   c-2.06-1.76-5.08-2.65-9.06-2.65h-14.52v39.67h14.74c4.17,0,7.34-0.98,9.54-2.93c2.19-1.95,3.29-4.54,3.29-7.77   c0-2.44-0.76-4.56-2.28-6.36S693.32,456.12,690.89,455.6z M676.65,440.69h8.33c2.7,0,4.71,0.58,6.02,1.75   c1.31,1.16,1.97,2.76,1.97,4.78c0,2.1-0.67,3.73-2,4.9c-1.33,1.16-3.25,1.74-5.77,1.74h-8.55V440.69z M691.59,470.01   c-1.48,1.24-3.57,1.86-6.27,1.86h-8.67v-14.18h8.55c2.7,0,4.81,0.63,6.33,1.88c1.52,1.26,2.28,2.99,2.28,5.21   C693.81,467.02,693.07,468.77,691.59,470.01z"></path>
	<path class="st3" d="M733.62,438.55c-2.95-1.72-6.26-2.59-9.93-2.59c-3.68,0-7.01,0.86-9.99,2.59c-2.98,1.73-5.32,4.14-7.01,7.23   c-1.69,3.1-2.53,6.59-2.53,10.5c0,3.9,0.84,7.4,2.53,10.5c1.69,3.1,4.02,5.51,7.01,7.23c2.98,1.73,6.31,2.59,9.99,2.59   c3.68,0,6.99-0.86,9.93-2.59c2.95-1.72,5.26-4.14,6.95-7.23c1.69-3.09,2.53-6.59,2.53-10.5c0-3.9-0.84-7.4-2.53-10.5   C738.89,442.68,736.57,440.27,733.62,438.55z M736.04,464.46c-1.22,2.34-2.91,4.16-5.06,5.43c-2.16,1.28-4.59,1.91-7.29,1.91   c-2.74,0-5.19-0.63-7.34-1.89c-2.16-1.26-3.85-3.07-5.06-5.43c-1.22-2.36-1.83-5.1-1.83-8.22c0-3.15,0.61-5.9,1.83-8.24   c1.22-2.34,2.91-4.14,5.06-5.4c2.16-1.26,4.61-1.88,7.34-1.88c2.7,0,5.13,0.63,7.29,1.88c2.16,1.26,3.84,3.06,5.06,5.4   c1.22,2.35,1.83,5.09,1.83,8.24C737.87,459.39,737.26,462.12,736.04,464.46z"></path>
	<polygon class="st3" points="775.74,436.47 775.74,467.87 755.15,436.47 750.03,436.47 750.03,476.14 755.15,476.14 755.15,444.79    775.74,476.14 780.87,476.14 780.87,436.47  "></polygon>
</g>
</svg>
